<?xml version="1.0" encoding="UTF-8"?>
<svg width="512px" height="512px" viewBox="0 0 512 512" version="1.1" xmlns="http://www.w3.org/2000/svg" xmlns:xlink="http://www.w3.org/1999/xlink">
    <title>Group</title>
    <g id="Page-1" stroke="none" stroke-width="1" fill="none" fill-rule="evenodd">
        <g id="Group">
            <rect id="Rectangle" fill="#2E2E30" x="0" y="0" width="512" height="512"></rect>
            <path d="M143.917895,486.139883 L143.917895,451.069941 L137.283041,451.069941 C126.698869,451.069941 117.812904,448.265926 110.625146,442.657895 C103.437388,437.049863 99.8435088,430.138557 99.8435088,421.923977 C99.8435088,417.974659 100.870331,410.391969 102.923977,399.175906 L102.923977,399.175906 L106.952281,375.006082 C108.68998,364.579883 109.55883,352.258012 109.55883,338.040468 C109.55883,308.341599 97.9478363,283.61887 74.725848,263.872281 C97.9478363,244.283665 109.55883,219.718909 109.55883,190.178013 C109.55883,175.802496 108.68998,163.401638 106.952281,152.97544 L106.952281,152.97544 L102.923977,128.805615 C100.870331,117.589553 99.8435088,110.085849 99.8435088,106.294504 C99.8435088,97.9219505 103.397895,90.9316581 110.506667,85.3236269 C117.615439,79.7155958 126.540897,76.9115802 137.283041,76.9115802 L137.283041,76.9115802 L143.917895,76.9115802 L143.917895,41.8416388 C117.536452,43.4213659 96.8025341,50.6881105 81.7161404,63.6418726 C66.6297467,76.5956348 59.0865498,93.577701 59.0865498,114.588071 C59.0865498,127.541833 60.5872906,140.811541 63.5887721,154.397194 L63.5887721,154.397194 L68.0909943,175.012632 C70.4605849,186.386668 71.6453802,197.444757 71.6453802,208.186901 C71.6453802,233.620507 59.6394543,246.337311 35.6276026,246.337311 L35.6276026,246.337311 L24.0166085,246.337311 L24.0166085,281.407252 L35.6276026,281.407252 C59.6394543,281.407252 71.6453802,294.045069 71.6453802,319.320702 C71.6453802,330.378792 70.4605849,341.594854 68.0909943,352.968889 L68.0909943,352.968889 L63.5887721,373.584328 C60.5872906,387.012008 59.0865498,400.202729 59.0865498,413.156491 C59.0865498,434.166862 66.5902535,451.188421 81.5976609,464.221169 C96.6050682,477.253918 117.378479,484.560156 143.917895,486.139883 L143.917895,486.139883 Z" id="{" fill="#E2E2E2" fill-rule="nonzero"></path>
            <path d="M368.319064,486.139883 C394.85848,484.560156 415.631891,477.253918 430.639298,464.221169 C445.646706,451.188421 453.150409,434.166862 453.150409,413.156491 C453.150409,400.202729 451.649668,387.012008 448.648187,373.584328 L444.145965,352.968889 C441.776374,341.594854 440.591579,330.378792 440.591579,319.320702 C440.591579,294.045069 452.597505,281.407252 476.609357,281.407252 L488.220351,281.407252 L488.220351,246.337311 L476.609357,246.337311 C452.597505,246.337311 440.591579,233.620507 440.591579,208.186901 C440.591579,197.444757 441.776374,186.386668 444.145965,175.012632 L448.648187,154.397194 C451.649668,140.811541 453.150409,127.541833 453.150409,114.588071 C453.150409,93.577701 445.607212,76.5956348 430.520819,63.6418726 C415.434425,50.6881105 394.700507,43.4213659 368.319064,41.8416388 L368.319064,76.9115802 L374.953918,76.9115802 C385.696062,76.9115802 394.621521,79.7155958 401.730292,85.3236269 C408.839064,90.9316581 412.39345,97.9219505 412.39345,106.294504 C412.39345,110.085849 411.366628,117.589553 409.312982,128.805615 L405.284678,152.97544 C403.546979,163.401638 402.678129,175.802496 402.678129,190.178013 C402.678129,219.718909 414.289123,244.283665 437.511111,263.872281 C414.289123,283.61887 402.678129,308.341599 402.678129,338.040468 C402.678129,352.258012 403.546979,364.579883 405.284678,375.006082 L409.312982,399.175906 C411.366628,410.391969 412.39345,417.974659 412.39345,421.923977 C412.39345,430.138557 408.799571,437.049863 401.611813,442.657895 C394.424055,448.265926 385.53809,451.069941 374.953918,451.069941 L368.319064,451.069941 L368.319064,486.139883 Z" id="}" fill="#E2E2E2" fill-rule="nonzero"></path>
            <polygon id="_" fill="#E2E2E2" fill-rule="nonzero" points="441.911633 243.261745 441.911633 189.955257 73.0883669 189.955257 73.0883669 243.261745"></polygon>
            <polygon id="_" fill="#E2E2E2" fill-rule="nonzero" points="441.911633 356.261745 441.911633 302.955257 73.0883669 302.955257 73.0883669 356.261745"></polygon>
            <polygon id="_" fill="#E2E2E2" fill-rule="nonzero" points="441.911633 195.261745 441.911633 141.955257 73.0883669 141.955257 73.0883669 195.261745"></polygon>
            <polygon id="_" fill="#E2E2E2" fill-rule="nonzero" points="441.911633 404.261745 441.911633 350.955257 73.0883669 350.955257 73.0883669 404.261745"></polygon>
        </g>
    </g>
</svg>